<svg xmlns="http://www.w3.org/2000/svg" width="803.9458618164062" height="867.2359619140625" viewBox="-361.50836181640625 -461.0423278808594 803.9458618164062 867.2359619140625"><title>Neo4j Graph Visualization</title><desc>Created using Neo4j (http://www.neo4j.com/)</desc><g class="layer relationships"><g class="relationship" transform="translate(72.14709800956041 84.53890248128766) rotate(482.68351415146685)"><path class="b-outline" fill="#A5ABB6" stroke="none" d="M 40 0.5 L 65.79678559089044 0.5 L 65.79678559089044 -0.5 L 40 -0.5 Z M 87.79678559089044 0.5 L 113.59357118178087 0.5 L 113.59357118178087 3.5 L 120.59357118178087 0 L 113.59357118178087 -3.5 L 113.59357118178087 -0.5 L 87.79678559089044 -0.5 Z"/><text text-anchor="middle" pointer-events="none" font-size="8px" fill="#000000" x="76.79678559089044" y="3" transform="rotate(180 76.79678559089044 0)" font-family="Helvetica Neue, Helvetica, Arial, sans-serif">阶段</text></g><g class="relationship" transform="translate(72.14709800956041 84.53890248128766) rotate(411.3801820608094)"><path class="b-outline" fill="#A5ABB6" stroke="none" d="M 40 0.5 L 81.4538969607984 0.5 L 81.4538969607984 -0.5 L 40 -0.5 Z M 103.4538969607984 0.5 L 144.9077939215968 0.5 L 144.9077939215968 3.5 L 151.9077939215968 0 L 144.9077939215968 -3.5 L 144.9077939215968 -0.5 L 103.4538969607984 -0.5 Z"/><text text-anchor="middle" pointer-events="none" font-size="8px" fill="#000000" x="92.4538969607984" y="3" font-family="Helvetica Neue, Helvetica, Arial, sans-serif">阶段</text></g><g class="relationship" transform="translate(72.14709800956041 84.53890248128766) rotate(348.20597266558957)"><path class="b-outline" fill="#A5ABB6" stroke="none" d="M 40 0.5 L 77.11040314478242 0.5 L 77.11040314478242 -0.5 L 40 -0.5 Z M 99.11040314478242 0.5 L 136.22080628956485 0.5 L 136.22080628956485 3.5 L 143.22080628956485 0 L 136.22080628956485 -3.5 L 136.22080628956485 -0.5 L 99.11040314478242 -0.5 Z"/><text text-anchor="middle" pointer-events="none" font-size="8px" fill="#000000" x="88.11040314478242" y="3" font-family="Helvetica Neue, Helvetica, Arial, sans-serif">阶段</text></g><g class="relationship" transform="translate(72.14709800956041 84.53890248128766) rotate(211.4111328147394)"><path class="b-outline" fill="#A5ABB6" stroke="none" d="M 40 0.5 L 74.67748275632651 0.5 L 74.67748275632651 -0.5 L 40 -0.5 Z M 96.67748275632651 0.5 L 131.35496551265302 0.5 L 131.35496551265302 3.5 L 138.35496551265302 0 L 131.35496551265302 -3.5 L 131.35496551265302 -0.5 L 96.67748275632651 -0.5 Z"/><text text-anchor="middle" pointer-events="none" font-size="8px" fill="#000000" x="85.67748275632651" y="3" transform="rotate(180 85.67748275632651 0)" font-family="Helvetica Neue, Helvetica, Arial, sans-serif">阶段</text></g><g class="relationship" transform="translate(-73.6689948699491 -4.506514569137295) rotate(255.11329486698128)"><path class="b-outline" fill="#A5ABB6" stroke="none" d="M 32.5 0.5 L 100.90240857285112 0.5 L 100.90240857285112 -0.5 L 32.5 -0.5 Z M 122.90240857285112 0.5 L 191.30481714570223 0.5 L 191.30481714570223 3.5 L 198.30481714570223 0 L 191.30481714570223 -3.5 L 191.30481714570223 -0.5 L 122.90240857285112 -0.5 Z"/><text text-anchor="middle" pointer-events="none" font-size="8px" fill="#000000" x="111.90240857285112" y="3" transform="rotate(180 111.90240857285112 0)" font-family="Helvetica Neue, Helvetica, Arial, sans-serif">颁发</text></g><g class="relationship" transform="translate(-10.523150000060035 213.39258551448177) rotate(520.1219456371534)"><path class="b-outline" fill="#A5ABB6" stroke="none" d="M 32.5 0.5 L 67.82745709324398 0.5 L 67.82745709324398 -0.5 L 32.5 -0.5 Z M 89.82745709324398 0.5 L 125.15491418648796 0.5 L 125.15491418648796 3.5 L 132.15491418648796 0 L 125.15491418648796 -3.5 L 125.15491418648796 -0.5 L 89.82745709324398 -0.5 Z"/><text text-anchor="middle" pointer-events="none" font-size="8px" fill="#000000" x="78.82745709324398" y="3" transform="rotate(180 78.82745709324398 0)" font-family="Helvetica Neue, Helvetica, Arial, sans-serif">颁发</text></g><g class="relationship" transform="translate(-10.523150000060035 213.39258551448177) rotate(479.01932090817223)"><path class="b-outline" fill="#A5ABB6" stroke="none" d="M 32.5 0.5 L 67.70259212629418 0.5 L 67.70259212629418 -0.5 L 32.5 -0.5 Z M 89.70259212629418 0.5 L 124.90518425258836 0.5 L 124.90518425258836 3.5 L 131.90518425258836 0 L 124.90518425258836 -3.5 L 124.90518425258836 -0.5 L 89.70259212629418 -0.5 Z"/><text text-anchor="middle" pointer-events="none" font-size="8px" fill="#000000" x="78.70259212629418" y="3" transform="rotate(180 78.70259212629418 0)" font-family="Helvetica Neue, Helvetica, Arial, sans-serif">颁发</text></g><g class="relationship" transform="translate(-10.523150000060035 213.39258551448177) rotate(433.7058120830028)"><path class="b-outline" fill="#A5ABB6" stroke="none" d="M 32.5 0.5 L 66.92083848202162 0.5 L 66.92083848202162 -0.5 L 32.5 -0.5 Z M 88.92083848202162 0.5 L 123.34167696404324 0.5 L 123.34167696404324 3.5 L 130.34167696404324 0 L 123.34167696404324 -3.5 L 123.34167696404324 -0.5 L 88.92083848202162 -0.5 Z"/><text text-anchor="middle" pointer-events="none" font-size="8px" fill="#000000" x="77.92083848202162" y="3" font-family="Helvetica Neue, Helvetica, Arial, sans-serif">颁发</text></g><g class="relationship" transform="translate(187.24520011814317 228.61756623839076) rotate(405.7884457548091)"><path class="b-outline" fill="#A5ABB6" stroke="none" d="M 32.5 0.5 L 65.64418941620703 0.5 L 65.64418941620703 -0.5 L 32.5 -0.5 Z M 87.64418941620703 0.5 L 120.78837883241405 0.5 L 120.78837883241405 3.5 L 127.78837883241405 0 L 120.78837883241405 -3.5 L 120.78837883241405 -0.5 L 87.64418941620703 -0.5 Z"/><text text-anchor="middle" pointer-events="none" font-size="8px" fill="#000000" x="76.64418941620703" y="3" font-family="Helvetica Neue, Helvetica, Arial, sans-serif">颁发</text></g><g class="relationship" transform="translate(244.1582097572135 48.62262207265997) rotate(362.41816505025025)"><path class="b-outline" fill="#A5ABB6" stroke="none" d="M 32.5 0.5 L 66.46169719928598 0.5 L 66.46169719928598 -0.5 L 32.5 -0.5 Z M 88.46169719928598 0.5 L 122.42339439857196 0.5 L 122.42339439857196 3.5 L 129.42339439857196 0 L 122.42339439857196 -3.5 L 122.42339439857196 -0.5 L 88.46169719928598 -0.5 Z"/><text text-anchor="middle" pointer-events="none" font-size="8px" fill="#000000" x="77.46169719928598" y="3" font-family="Helvetica Neue, Helvetica, Arial, sans-serif">颁发</text></g><g class="relationship" transform="translate(244.1582097572135 48.62262207265997) rotate(211.27554808184834)"><path class="b-outline" fill="#A5ABB6" stroke="none" d="M 32.5 0.5 L 60.736541053779774 0.5 L 60.736541053779774 -0.5 L 32.5 -0.5 Z M 82.73654105377977 0.5 L 110.97308210755955 0.5 L 110.97308210755955 3.5 L 117.97308210755955 0 L 110.97308210755955 -3.5 L 110.97308210755955 -0.5 L 82.73654105377977 -0.5 Z"/><text text-anchor="middle" pointer-events="none" font-size="8px" fill="#000000" x="71.73654105377977" y="3" transform="rotate(180 71.73654105377977 0)" font-family="Helvetica Neue, Helvetica, Arial, sans-serif">颁发</text></g><g class="relationship" transform="translate(244.1582097572135 48.62262207265997) rotate(251.99569111571657)"><path class="b-outline" fill="#A5ABB6" stroke="none" d="M 32.5 0.5 L 72.01230375482486 0.5 L 72.01230375482486 -0.5 L 32.5 -0.5 Z M 94.01230375482486 0.5 L 133.5246075096497 0.5 L 133.5246075096497 3.5 L 140.5246075096497 0 L 133.5246075096497 -3.5 L 133.5246075096497 -0.5 L 94.01230375482486 -0.5 Z"/><text text-anchor="middle" pointer-events="none" font-size="8px" fill="#000000" x="83.01230375482486" y="3" transform="rotate(180 83.01230375482486 0)" font-family="Helvetica Neue, Helvetica, Arial, sans-serif">颁发</text></g><g class="relationship" transform="translate(-132.96472556807566 -227.5645337897793) rotate(401.7022855821801)"><path class="b-outline" fill="#A5ABB6" stroke="none" d="M 32.5 0.5 L 61.54614051784189 0.5 L 61.54614051784189 -0.5 L 32.5 -0.5 Z M 83.54614051784189 0.5 L 112.59228103568378 0.5 L 112.59228103568378 3.5 L 119.59228103568378 0 L 112.59228103568378 -3.5 L 112.59228103568378 -0.5 L 83.54614051784189 -0.5 Z"/><text text-anchor="middle" pointer-events="none" font-size="8px" fill="#000000" x="72.54614051784189" y="3" font-family="Helvetica Neue, Helvetica, Arial, sans-serif">衍生</text></g><g class="relationship" transform="translate(190.67829042404526 -115.92953692863101) rotate(182.84869624536253)"><path class="b-outline" fill="#A5ABB6" stroke="none" d="M 32.5 0.5 L 90.67454245101945 0.5 L 90.67454245101945 -0.5 L 32.5 -0.5 Z M 112.67454245101945 0.5 L 170.8490849020389 0.5 L 170.8490849020389 3.5 L 177.8490849020389 0 L 170.8490849020389 -3.5 L 170.8490849020389 -0.5 L 112.67454245101945 -0.5 Z"/><text text-anchor="middle" pointer-events="none" font-size="8px" fill="#000000" x="101.67454245101945" y="3" transform="rotate(180 101.67454245101945 0)" font-family="Helvetica Neue, Helvetica, Arial, sans-serif">深化</text></g><g class="relationship" transform="translate(-132.96472556807566 -227.5645337897793) rotate(359.86626455739497)"><path class="b-outline" fill="#A5ABB6" stroke="none" d="M 32.5 0.5 L 68.18048466663366 0.5 L 68.18048466663366 -0.5 L 32.5 -0.5 Z M 90.18048466663366 0.5 L 125.86096933326732 0.5 L 125.86096933326732 3.5 L 132.86096933326732 0 L 125.86096933326732 -3.5 L 125.86096933326732 -0.5 L 90.18048466663366 -0.5 Z"/><text text-anchor="middle" pointer-events="none" font-size="8px" fill="#000000" x="79.18048466663366" y="3" font-family="Helvetica Neue, Helvetica, Arial, sans-serif">衍生</text></g><g class="relationship" transform="translate(-132.96472556807566 -227.5645337897793) rotate(333.6031603910146)"><path class="b-outline" fill="#A5ABB6" stroke="none" d="M 32.5 0.5 L 103.0403536859781 0.5 L 103.0403536859781 -0.5 L 32.5 -0.5 Z M 125.0403536859781 0.5 L 195.5807073719562 0.5 L 195.5807073719562 3.5 L 202.5807073719562 0 L 195.5807073719562 -3.5 L 195.5807073719562 -0.5 L 125.0403536859781 -0.5 Z"/><text text-anchor="middle" pointer-events="none" font-size="8px" fill="#000000" x="114.0403536859781" y="3" font-family="Helvetica Neue, Helvetica, Arial, sans-serif">衍生</text></g><g class="relationship" transform="translate(-132.96472556807566 -227.5645337897793) rotate(316.4659841098271)"><path class="b-outline" fill="#A5ABB6" stroke="none" d="M 32.5 0.5 L 53.25082334570858 0.5 L 53.25082334570858 -0.5 L 32.5 -0.5 Z M 75.25082334570858 0.5 L 96.00164669141716 0.5 L 96.00164669141716 3.5 L 103.00164669141716 0 L 96.00164669141716 -3.5 L 96.00164669141716 -0.5 L 75.25082334570858 -0.5 Z"/><text text-anchor="middle" pointer-events="none" font-size="8px" fill="#000000" x="64.25082334570858" y="3" font-family="Helvetica Neue, Helvetica, Arial, sans-serif">衍生</text></g><g class="relationship" transform="translate(-132.96472556807566 -227.5645337897793) rotate(306.1740137451012)"><path class="b-outline" fill="#A5ABB6" stroke="none" d="M 32.5 0.5 L 107.50875425387515 0.5 L 107.50875425387515 -0.5 L 32.5 -0.5 Z M 129.50875425387517 0.5 L 204.5175085077503 0.5 L 204.5175085077503 3.5 L 211.5175085077503 0 L 204.5175085077503 -3.5 L 204.5175085077503 -0.5 L 129.50875425387517 -0.5 Z"/><text text-anchor="middle" pointer-events="none" font-size="8px" fill="#000000" x="118.50875425387515" y="3" font-family="Helvetica Neue, Helvetica, Arial, sans-serif">衍生</text></g><g class="relationship" transform="translate(32.39579331104363 -227.95050641343062) rotate(263.8071974025372)"><path class="b-outline" fill="#A5ABB6" stroke="none" d="M 32.5 0.5 L 84.37287848077659 0.5 L 84.37287848077659 -0.5 L 32.5 -0.5 Z M 106.37287848077659 0.5 L 158.24575696155318 0.5 L 158.24575696155318 3.5 L 165.24575696155318 0 L 158.24575696155318 -3.5 L 158.24575696155318 -0.5 L 106.37287848077659 -0.5 Z"/><text text-anchor="middle" pointer-events="none" font-size="8px" fill="#000000" x="95.37287848077659" y="3" transform="rotate(180 95.37287848077659 0)" font-family="Helvetica Neue, Helvetica, Arial, sans-serif">完善</text></g><g class="relationship" transform="translate(-132.96472556807566 -227.5645337897793) rotate(243.69627385166257)"><path class="b-outline" fill="#A5ABB6" stroke="none" d="M 32.5 0.5 L 73.2447135891013 0.5 L 73.2447135891013 -0.5 L 32.5 -0.5 Z M 95.2447135891013 0.5 L 135.9894271782026 0.5 L 135.9894271782026 3.5 L 142.9894271782026 0 L 135.9894271782026 -3.5 L 135.9894271782026 -0.5 L 95.2447135891013 -0.5 Z"/><text text-anchor="middle" pointer-events="none" font-size="8px" fill="#000000" x="84.2447135891013" y="3" transform="rotate(180 84.2447135891013 0)" font-family="Helvetica Neue, Helvetica, Arial, sans-serif">衍生</text></g><g class="relationship" transform="translate(-132.96472556807566 -227.5645337897793) rotate(279.76756310209925)"><path class="b-outline" fill="#A5ABB6" stroke="none" d="M 32.5 0.5 L 80.23030006994948 0.5 L 80.23030006994948 -0.5 L 32.5 -0.5 Z M 102.23030006994948 0.5 L 149.96060013989896 0.5 L 149.96060013989896 3.5 L 156.96060013989896 0 L 149.96060013989896 -3.5 L 149.96060013989896 -0.5 L 102.23030006994948 -0.5 Z"/><text text-anchor="middle" pointer-events="none" font-size="8px" fill="#000000" x="91.23030006994948" y="3" font-family="Helvetica Neue, Helvetica, Arial, sans-serif">衍生</text></g><g class="relationship" transform="translate(-132.96472556807566 -227.5645337897793) rotate(204.78499757957434)"><path class="b-outline" fill="#A5ABB6" stroke="none" d="M 32.5 0.5 L 68.4331818963708 0.5 L 68.4331818963708 -0.5 L 32.5 -0.5 Z M 90.4331818963708 0.5 L 126.3663637927416 0.5 L 126.3663637927416 3.5 L 133.3663637927416 0 L 126.3663637927416 -3.5 L 126.3663637927416 -0.5 L 90.4331818963708 -0.5 Z"/><text text-anchor="middle" pointer-events="none" font-size="8px" fill="#000000" x="79.4331818963708" y="3" transform="rotate(180 79.4331818963708 0)" font-family="Helvetica Neue, Helvetica, Arial, sans-serif">衍生</text></g><g class="relationship" transform="translate(-132.96472556807566 -227.5645337897793) rotate(461.8039139247612)"><path class="b-outline" fill="#A5ABB6" stroke="none" d="M 32.5 0.5 L 64.61711334553078 0.5 L 64.61711334553078 -0.5 L 32.5 -0.5 Z M 86.61711334553078 0.5 L 118.73422669106156 0.5 L 118.73422669106156 3.5 L 125.73422669106156 0 L 118.73422669106156 -3.5 L 118.73422669106156 -0.5 L 86.61711334553078 -0.5 Z"/><text text-anchor="middle" pointer-events="none" font-size="8px" fill="#000000" x="75.61711334553078" y="3" transform="rotate(180 75.61711334553078 0)" font-family="Helvetica Neue, Helvetica, Arial, sans-serif">衍生</text></g><g class="relationship" transform="translate(-132.96472556807566 -227.5645337897793) rotate(495.2216708776878)"><path class="b-outline" fill="#A5ABB6" stroke="none" d="M 32.5 0.5 L 88.44555924847266 0.5 L 88.44555924847266 -0.5 L 32.5 -0.5 Z M 110.44555924847266 0.5 L 166.39111849694532 0.5 L 166.39111849694532 3.5 L 173.39111849694532 0 L 166.39111849694532 -3.5 L 166.39111849694532 -0.5 L 110.44555924847266 -0.5 Z"/><text text-anchor="middle" pointer-events="none" font-size="8px" fill="#000000" x="99.44555924847266" y="3" transform="rotate(180 99.44555924847266 0)" font-family="Helvetica Neue, Helvetica, Arial, sans-serif">衍生</text></g><g class="relationship" transform="translate(-132.96472556807566 -227.5645337897793) rotate(529.1075162299151)"><path class="b-outline" fill="#A5ABB6" stroke="none" d="M 32.5 0.5 L 83.2835328549082 0.5 L 83.2835328549082 -0.5 L 32.5 -0.5 Z M 105.2835328549082 0.5 L 156.0670657098164 0.5 L 156.0670657098164 3.5 L 163.0670657098164 0 L 156.0670657098164 -3.5 L 156.0670657098164 -0.5 L 105.2835328549082 -0.5 Z"/><text text-anchor="middle" pointer-events="none" font-size="8px" fill="#000000" x="94.2835328549082" y="3" transform="rotate(180 94.2835328549082 0)" font-family="Helvetica Neue, Helvetica, Arial, sans-serif">衍生</text></g><g class="relationship" transform="translate(-279.11390027304395 -82.54187552914806) rotate(246.9897872988198)"><path class="b-outline" fill="#A5ABB6" stroke="none" d="M 32.5 0.5 L 44.20430135042468 0.5 L 44.20430135042468 -0.5 L 32.5 -0.5 Z M 66.20430135042469 0.5 L 77.90860270084936 0.5 L 77.90860270084936 3.5 L 84.90860270084936 0 L 77.90860270084936 -3.5 L 77.90860270084936 -0.5 L 66.20430135042469 -0.5 Z"/><text text-anchor="middle" pointer-events="none" font-size="8px" fill="#000000" x="55.20430135042468" y="3" transform="rotate(180 55.20430135042468 0)" font-family="Helvetica Neue, Helvetica, Arial, sans-serif">深化</text></g><g class="relationship" transform="translate(77.60559383686181 -332.07807149758975) rotate(204.73522455486113)"><path class="b-outline" fill="#A5ABB6" stroke="none" d="M 32.5 0.5 L 83.72615327082428 0.5 L 83.72615327082428 -0.5 L 32.5 -0.5 Z M 105.72615327082428 0.5 L 156.95230654164857 0.5 L 156.95230654164857 3.5 L 163.95230654164857 0 L 156.95230654164857 -3.5 L 156.95230654164857 -0.5 L 105.72615327082428 -0.5 Z"/><text text-anchor="middle" pointer-events="none" font-size="8px" fill="#000000" x="94.72615327082428" y="3" transform="rotate(180 94.72615327082428 0)" font-family="Helvetica Neue, Helvetica, Arial, sans-serif">实施</text></g><g class="relationship" transform="translate(11.064074341086153 -424.54232252509996) rotate(529.8620600498916)"><path class="b-outline" fill="#A5ABB6" stroke="none" d="M 32.5 0.5 L 98.155579833645 0.5 L 98.155579833645 -0.5 L 32.5 -0.5 Z M 120.155579833645 0.5 L 185.81115966729 0.5 L 185.81115966729 3.5 L 192.81115966729 0 L 185.81115966729 -3.5 L 185.81115966729 -0.5 L 120.155579833645 -0.5 Z"/><text text-anchor="middle" pointer-events="none" font-size="8px" fill="#000000" x="109.155579833645" y="3" transform="rotate(180 109.155579833645 0)" font-family="Helvetica Neue, Helvetica, Arial, sans-serif">深化</text></g></g><g class="layer nodes"><g class="node" aria-label="graph-node0" transform="translate(72.14709800956041,84.53890248128766)" style="touch-action: none; -webkit-tap-highlight-color: rgba(0, 0, 0, 0);"><circle class="b-outline" cx="0" cy="0" r="40" fill="#F16667" stroke="#eb2728" stroke-width="2px"/><text class="caption" text-anchor="middle" pointer-events="none" x="0" y="5" font-size="10px" fill="#FFFFFF" font-family="Helvetica Neue, Helvetica, Arial, sans-serif"> 养老保险政策</text></g><g class="node" aria-label="graph-node1" transform="translate(-10.523150000060035,213.39258551448177)" style="touch-action: none; -webkit-tap-highlight-color: rgba(0, 0, 0, 0);"><circle class="b-outline" cx="0" cy="0" r="32.5" fill="#D9C8AE" stroke="#c0a378" stroke-width="2px"/><text class="caption" text-anchor="middle" pointer-events="none" x="0" y="5" font-size="10px" fill="#2A2C34" font-family="Helvetica Neue, Helvetica, Arial, sans-serif"> 传统养老保…</text></g><g class="node" aria-label="graph-node2" transform="translate(187.24520011814317,228.61756623839076)" style="touch-action: none; -webkit-tap-highlight-color: rgba(0, 0, 0, 0);"><circle class="b-outline" cx="0" cy="0" r="32.5" fill="#8DCC93" stroke="#5db665" stroke-width="2px"/><text class="caption" text-anchor="middle" pointer-events="none" x="0" y="5" font-size="10px" fill="#2A2C34" font-family="Helvetica Neue, Helvetica, Arial, sans-serif"> 社会养老保…</text></g><g class="node" aria-label="graph-node3" transform="translate(244.1582097572135,48.62262207265997)" style="touch-action: none; -webkit-tap-highlight-color: rgba(0, 0, 0, 0);"><circle class="b-outline" cx="0" cy="0" r="32.5" fill="#ECB5C9" stroke="#da7298" stroke-width="2px"/><text class="caption" text-anchor="middle" pointer-events="none" x="0" y="5" font-size="10px" fill="#2A2C34" font-family="Helvetica Neue, Helvetica, Arial, sans-serif"> 养老保险社…</text></g><g class="node" aria-label="graph-node4" transform="translate(-73.6689948699491,-4.506514569137295)" style="touch-action: none; -webkit-tap-highlight-color: rgba(0, 0, 0, 0);"><circle class="b-outline" cx="0" cy="0" r="32.5" fill="#4C8EDA" stroke="#2870c2" stroke-width="2px"/><text class="caption" text-anchor="middle" pointer-events="none" x="0" y="5" font-size="10px" fill="#FFFFFF" font-family="Helvetica Neue, Helvetica, Arial, sans-serif"> “统账结合…</text></g><g class="node" aria-label="graph-node5" transform="translate(-132.96472556807566,-227.5645337897793)" style="touch-action: none; -webkit-tap-highlight-color: rgba(0, 0, 0, 0);"><circle class="b-outline" cx="0" cy="0" r="32.5" fill="#4C8EDA" stroke="#2870c2" stroke-width="2px"/><text class="caption" text-anchor="middle" pointer-events="none" x="0" y="5" font-size="10px" fill="#FFFFFF" font-family="Helvetica Neue, Helvetica, Arial, sans-serif"> 《中共中央…</text></g><g class="node" aria-label="graph-node6" transform="translate(-165.36766612867956,269.3784461460145)" style="touch-action: none; -webkit-tap-highlight-color: rgba(0, 0, 0, 0);"><circle class="b-outline" cx="0" cy="0" r="32.5" fill="#D9C8AE" stroke="#c0a378" stroke-width="2px"/><text class="caption" text-anchor="middle" pointer-events="none" x="0" y="5" font-size="10px" fill="#2A2C34" font-family="Helvetica Neue, Helvetica, Arial, sans-serif"> 《中华人民…</text></g><g class="node" aria-label="graph-node7" transform="translate(-90.27684901430656,357.15771377120643)" style="touch-action: none; -webkit-tap-highlight-color: rgba(0, 0, 0, 0);"><circle class="b-outline" cx="0" cy="0" r="32.5" fill="#D9C8AE" stroke="#c0a378" stroke-width="2px"/><text class="caption" text-anchor="middle" pointer-events="none" x="0" y="5" font-size="10px" fill="#2A2C34" font-family="Helvetica Neue, Helvetica, Arial, sans-serif"> 《国家机关…</text></g><g class="node" aria-label="graph-node8" transform="translate(35.16523261882607,369.6935242516886)" style="touch-action: none; -webkit-tap-highlight-color: rgba(0, 0, 0, 0);"><circle class="b-outline" cx="0" cy="0" r="32.5" fill="#D9C8AE" stroke="#c0a378" stroke-width="2px"/><text class="caption" text-anchor="middle" pointer-events="none" x="0" y="5" font-size="10px" fill="#2A2C34" font-family="Helvetica Neue, Helvetica, Arial, sans-serif"> 《关于工人…</text></g><g class="node" aria-label="graph-node9" transform="translate(299.01583515981207,343.50746801877153)" style="touch-action: none; -webkit-tap-highlight-color: rgba(0, 0, 0, 0);"><circle class="b-outline" cx="0" cy="0" r="32.5" fill="#8DCC93" stroke="#5db665" stroke-width="2px"/><text class="caption" text-anchor="middle" pointer-events="none" x="0" y="5" font-size="10px" fill="#2A2C34" font-family="Helvetica Neue, Helvetica, Arial, sans-serif"> 《关于国营…</text></g><g class="node" aria-label="graph-node10" transform="translate(405.9374119610888,55.45456087750314)" style="touch-action: none; -webkit-tap-highlight-color: rgba(0, 0, 0, 0);"><circle class="b-outline" cx="0" cy="0" r="32.5" fill="#ECB5C9" stroke="#da7298" stroke-width="2px"/><text class="caption" text-anchor="middle" pointer-events="none" x="0" y="5" font-size="10px" fill="#2A2C34" font-family="Helvetica Neue, Helvetica, Arial, sans-serif"> 《关于做好…</text></g><g class="node" aria-label="graph-node11" transform="translate(115.55180587257459,-29.4961421188548)" style="touch-action: none; -webkit-tap-highlight-color: rgba(0, 0, 0, 0);"><circle class="b-outline" cx="0" cy="0" r="32.5" fill="#ECB5C9" stroke="#da7298" stroke-width="2px"/><text class="caption" text-anchor="middle" pointer-events="none" x="0" y="5" font-size="10px" fill="#2A2C34" font-family="Helvetica Neue, Helvetica, Arial, sans-serif"> 《国营企业…</text></g><g class="node" aria-label="graph-node12" transform="translate(190.67829042404526,-115.92953692863101)" style="touch-action: none; -webkit-tap-highlight-color: rgba(0, 0, 0, 0);"><circle class="b-outline" cx="0" cy="0" r="32.5" fill="#ECB5C9" stroke="#da7298" stroke-width="2px"/><text class="caption" text-anchor="middle" pointer-events="none" x="0" y="5" font-size="10px" fill="#2A2C34" font-family="Helvetica Neue, Helvetica, Arial, sans-serif"> 《关于企业…</text></g><g class="node" aria-label="graph-node13" transform="translate(-19.410857427518227,-126.38360188581672)" style="touch-action: none; -webkit-tap-highlight-color: rgba(0, 0, 0, 0);"><circle class="b-outline" cx="0" cy="0" r="32.5" fill="#4C8EDA" stroke="#2870c2" stroke-width="2px"/><text class="caption" text-anchor="middle" pointer-events="none" x="0" y="5" font-size="10px" fill="#FFFFFF" font-family="Helvetica Neue, Helvetica, Arial, sans-serif"> 《关于深化…</text></g><g class="node" aria-label="graph-node14" transform="translate(32.39579331104363,-227.95050641343062)" style="touch-action: none; -webkit-tap-highlight-color: rgba(0, 0, 0, 0);"><circle class="b-outline" cx="0" cy="0" r="32.5" fill="#4C8EDA" stroke="#2870c2" stroke-width="2px"/><text class="caption" text-anchor="middle" pointer-events="none" x="0" y="5" font-size="10px" fill="#FFFFFF" font-family="Helvetica Neue, Helvetica, Arial, sans-serif"> 《关于建立…</text></g><g class="node" aria-label="graph-node15" transform="translate(77.60559383686181,-332.07807149758975)" style="touch-action: none; -webkit-tap-highlight-color: rgba(0, 0, 0, 0);"><circle class="b-outline" cx="0" cy="0" r="32.5" fill="#4C8EDA" stroke="#2870c2" stroke-width="2px"/><text class="caption" text-anchor="middle" pointer-events="none" x="0" y="5" font-size="10px" fill="#FFFFFF" font-family="Helvetica Neue, Helvetica, Arial, sans-serif"> 《国务院关…</text></g><g class="node" aria-label="graph-node16" transform="translate(-34.73069643312973,-320.89604923874344)" style="touch-action: none; -webkit-tap-highlight-color: rgba(0, 0, 0, 0);"><circle class="b-outline" cx="0" cy="0" r="32.5" fill="#4C8EDA" stroke="#2870c2" stroke-width="2px"/><text class="caption" text-anchor="middle" pointer-events="none" x="0" y="5" font-size="10px" fill="#FFFFFF" font-family="Helvetica Neue, Helvetica, Arial, sans-serif"> 《关于完善…</text></g><g class="node" aria-label="graph-node17" transform="translate(11.064074341086153,-424.54232252509996)" style="touch-action: none; -webkit-tap-highlight-color: rgba(0, 0, 0, 0);"><circle class="b-outline" cx="0" cy="0" r="32.5" fill="#4C8EDA" stroke="#2870c2" stroke-width="2px"/><text class="caption" text-anchor="middle" pointer-events="none" x="0" y="5" font-size="10px" fill="#FFFFFF" font-family="Helvetica Neue, Helvetica, Arial, sans-serif"> 《关于完善…</text></g><g class="node" aria-label="graph-node18" transform="translate(-210.72926621270426,-384.88336695880446)" style="touch-action: none; -webkit-tap-highlight-color: rgba(0, 0, 0, 0);"><circle class="b-outline" cx="0" cy="0" r="32.5" fill="#4C8EDA" stroke="#2870c2" stroke-width="2px"/><text class="caption" text-anchor="middle" pointer-events="none" x="0" y="5" font-size="10px" fill="#FFFFFF" font-family="Helvetica Neue, Helvetica, Arial, sans-serif"> 《城镇企业…</text></g><g class="node" aria-label="graph-node19" transform="translate(-100.82243118387734,-414.2787322779773)" style="touch-action: none; -webkit-tap-highlight-color: rgba(0, 0, 0, 0);"><circle class="b-outline" cx="0" cy="0" r="32.5" fill="#4C8EDA" stroke="#2870c2" stroke-width="2px"/><text class="caption" text-anchor="middle" pointer-events="none" x="0" y="5" font-size="10px" fill="#FFFFFF" font-family="Helvetica Neue, Helvetica, Arial, sans-serif"> 《关于推进…</text></g><g class="node" aria-label="graph-node20" transform="translate(-283.552687009159,-297.09809767690433)" style="touch-action: none; -webkit-tap-highlight-color: rgba(0, 0, 0, 0);"><circle class="b-outline" cx="0" cy="0" r="32.5" fill="#4C8EDA" stroke="#2870c2" stroke-width="2px"/><text class="caption" text-anchor="middle" pointer-events="none" x="0" y="5" font-size="10px" fill="#FFFFFF" font-family="Helvetica Neue, Helvetica, Arial, sans-serif"> 《人力资源…</text></g><g class="node" aria-label="graph-node21" transform="translate(-165.33358081051966,-72.67642027937477)" style="touch-action: none; -webkit-tap-highlight-color: rgba(0, 0, 0, 0);"><circle class="b-outline" cx="0" cy="0" r="32.5" fill="#4C8EDA" stroke="#2870c2" stroke-width="2px"/><text class="caption" text-anchor="middle" pointer-events="none" x="0" y="5" font-size="10px" fill="#FFFFFF" font-family="Helvetica Neue, Helvetica, Arial, sans-serif"> 《关于机关…</text></g><g class="node" aria-label="graph-node22" transform="translate(-279.11390027304395,-82.54187552914806)" style="touch-action: none; -webkit-tap-highlight-color: rgba(0, 0, 0, 0);"><circle class="b-outline" cx="0" cy="0" r="32.5" fill="#4C8EDA" stroke="#2870c2" stroke-width="2px"/><text class="caption" text-anchor="middle" pointer-events="none" x="0" y="5" font-size="10px" fill="#FFFFFF" font-family="Helvetica Neue, Helvetica, Arial, sans-serif"> 《关于阶段…</text></g><g class="node" aria-label="graph-node23" transform="translate(-325.00835926205104,-190.60888539928482)" style="touch-action: none; -webkit-tap-highlight-color: rgba(0, 0, 0, 0);"><circle class="b-outline" cx="0" cy="0" r="32.5" fill="#4C8EDA" stroke="#2870c2" stroke-width="2px"/><text class="caption" text-anchor="middle" pointer-events="none" x="0" y="5" font-size="10px" fill="#FFFFFF" font-family="Helvetica Neue, Helvetica, Arial, sans-serif"> 《减低社会…</text></g></g></svg>